<?xml version="1.0" encoding="UTF-8" standalone="no"?>
<!-- Created with Inkscape (http://www.inkscape.org/) -->

<svg
   width="700"
   height="400"
   viewBox="0 0 185.20834 105.83333"
   version="1.1"
   id="svg1"
   inkscape:export-filename="englacialwater.pdf"
   inkscape:export-xdpi="96"
   inkscape:export-ydpi="96"
   inkscape:version="1.4 (e7c3feb100, 2024-10-09)"
   sodipodi:docname="englacialwater.svg"
   xmlns:inkscape="http://www.inkscape.org/namespaces/inkscape"
   xmlns:sodipodi="http://sodipodi.sourceforge.net/DTD/sodipodi-0.dtd"
   xmlns="http://www.w3.org/2000/svg"
   xmlns:svg="http://www.w3.org/2000/svg">
  <sodipodi:namedview
     id="namedview1"
     pagecolor="#ffffff"
     bordercolor="#000000"
     borderopacity="0.25"
     inkscape:showpageshadow="2"
     inkscape:pageopacity="0.0"
     inkscape:pagecheckerboard="0"
     inkscape:deskcolor="#d1d1d1"
     inkscape:document-units="px"
     inkscape:zoom="1.3584889"
     inkscape:cx="144.27795"
     inkscape:cy="282.29896"
     inkscape:window-width="1920"
     inkscape:window-height="1005"
     inkscape:window-x="0"
     inkscape:window-y="0"
     inkscape:window-maximized="1"
     inkscape:current-layer="layer1"
     showguides="true" />
  <defs
     id="defs1" />
  <g
     inkscape:label="Layer 1"
     inkscape:groupmode="layer"
     id="layer1">
    <rect
       style="fill:#00ffff;stroke:none;stroke-width:1.60631"
       id="rect1"
       width="185.20833"
       height="105.83333"
       x="0"
       y="0" />
    <rect
       style="fill:#e6e6e6;stroke:none;stroke-width:0.993941"
       id="rect2"
       width="185.20833"
       height="5.2916665"
       x="0"
       y="10.583333" />
    <rect
       style="fill:#646464;fill-opacity:1;stroke:none;stroke-width:1.40564"
       id="rect2-5"
       width="185.20833"
       height="10.583333"
       x="0"
       y="-3.5527137e-15" />
    <path
       style="fill:#1a1a1a;fill-opacity:1;stroke:none;stroke-width:1.28229"
       d="m 0.13771821,46.302083 c 0,0 16.10906279,6.947007 22.87563679,16.962307 2.920423,4.322561 8.234643,16.76586 14.085356,20.245916 5.850713,3.480058 18.310704,11.815878 27.261376,13.229116 9.873015,1.55887 28.701817,3.239825 28.701817,3.239825 0,0 13.918806,-1.020233 17.549506,-1.826235 3.63069,-0.806003 7.58172,-2.212267 11.78946,-3.237358 4.20773,-1.025089 14.81706,-4.608974 14.81706,-4.608974 0,0 18.13862,0.828312 24.38407,-0.361164 6.24546,-1.189475 11.81815,-9.645763 11.81815,-9.645763 l 5.54435,-9.088161 6.24384,-5.311232 v 39.93292 L 0,105.83334 Z"
       id="path2"
       sodipodi:nodetypes="cszsczzczcccccc" />
    <path
       style="fill:none;fill-opacity:1;stroke:#1a1a1a;stroke-width:0.284214;stroke-dasharray:none;stroke-opacity:1"
       d="m 0.03130065,20.511461 21.48216535,4.850804 48.571819,-2.37928 71.914185,12.592244 20.8224,-2.257392 22.3704,-2.544693"
       id="path3"
       sodipodi:nodetypes="cccccc" />
    <rect
       style="fill:#800000;fill-opacity:1;stroke:none;stroke-width:0.0506427;stroke-dasharray:none;stroke-opacity:1"
       id="rect3"
       width="1.0583333"
       height="0.52916664"
       x="-57.521851"
       y="-49.088158" />
    <rect
       style="fill:#800000;fill-opacity:1;stroke:none;stroke-width:0.0546921;stroke-dasharray:none;stroke-opacity:1"
       id="rect3-2"
       width="1.2343506"
       height="0.52916664"
       x="91.344666"
       y="39.952084" />
    <rect
       style="fill:#800000;fill-opacity:1;stroke:none;stroke-width:0.0546921;stroke-dasharray:none;stroke-opacity:1"
       id="rect3-7"
       width="1.2343506"
       height="0.52916664"
       x="101.52806"
       y="48.418751" />
    <rect
       style="fill:#800000;fill-opacity:1;stroke:none;stroke-width:0.0546921;stroke-dasharray:none;stroke-opacity:1"
       id="rect3-6"
       width="1.2343506"
       height="0.52916664"
       x="101.52806"
       y="35.454166" />
    <rect
       style="fill:#800000;fill-opacity:1;stroke:none;stroke-width:0.0546921;stroke-dasharray:none;stroke-opacity:1"
       id="rect3-9"
       width="1.2343506"
       height="0.52916664"
       x="118.50037"
       y="22.754166" />
    <rect
       style="fill:#800000;fill-opacity:1;stroke:none;stroke-width:0.0546921;stroke-dasharray:none;stroke-opacity:1"
       id="rect3-3"
       width="1.2343506"
       height="0.52916664"
       x="117.8832"
       y="59.266663" />
    <rect
       style="fill:#800000;fill-opacity:1;stroke:none;stroke-width:0.0546921;stroke-dasharray:none;stroke-opacity:1"
       id="rect3-22"
       width="1.2343506"
       height="0.52916664"
       x="151.34535"
       y="22.225" />
    <rect
       style="fill:#800000;fill-opacity:1;stroke:none;stroke-width:0.0546921;stroke-dasharray:none;stroke-opacity:1"
       id="rect3-36"
       width="1.2343506"
       height="0.52916664"
       x="143.4525"
       y="62.441662" />
    <rect
       style="fill:#800000;fill-opacity:1;stroke:none;stroke-width:0.0546921;stroke-dasharray:none;stroke-opacity:1"
       id="rect3-4"
       width="1.2343506"
       height="0.52916664"
       x="79.664009"
       y="86.518761" />
    <rect
       style="fill:#800000;fill-opacity:1;stroke:none;stroke-width:0.0546921;stroke-dasharray:none;stroke-opacity:1"
       id="rect3-4-9"
       width="1.2343506"
       height="0.52916664"
       x="97.538841"
       y="-97.971069"
       transform="scale(1,-1)" />
    <rect
       style="fill:#800000;fill-opacity:1;stroke:none;stroke-width:0.0546921;stroke-dasharray:none;stroke-opacity:1"
       id="rect3-4-9-0"
       width="1.2343506"
       height="0.52916664"
       x="68.254654"
       y="95.916145" />
    <rect
       style="fill:#800000;fill-opacity:1;stroke:none;stroke-width:0.0546921;stroke-dasharray:none;stroke-opacity:1"
       id="rect3-30"
       width="1.2343506"
       height="0.52916664"
       x="83.127342"
       y="89.255165" />
    <rect
       style="fill:#800000;fill-opacity:1;stroke:none;stroke-width:0.0546921;stroke-dasharray:none;stroke-opacity:1"
       id="rect3-8"
       width="1.2343506"
       height="0.52916664"
       x="85.83577"
       y="86.78334" />
    <rect
       style="fill:#800000;fill-opacity:1;stroke:none;stroke-width:0.0546921;stroke-dasharray:none;stroke-opacity:1"
       id="rect3-1"
       width="1.2343506"
       height="0.52916664"
       x="88.61306"
       y="88.106255" />
    <rect
       style="fill:#dcd2d2;stroke:none;stroke-width:0.99403959;fill-opacity:1;stroke-dasharray:none"
       id="rect2-53"
       width="185.20833"
       height="5.2916665"
       x="0"
       y="5.2916665" />
    <path
       style="fill:#723937;fill-opacity:1;stroke:none;stroke-width:0.264583px;stroke-linecap:butt;stroke-linejoin:miter;stroke-opacity:1"
       d="m 128.10534,93.242767 c 0,0 5.06615,-1.691669 6.42717,-3.846568 0.72906,-1.154315 1.66511,-3.043726 2.99967,-3.331698 1.45993,-0.315027 2.94509,-0.06205 4.08989,0.89716 1.11827,0.936977 2.39204,1.691889 3.7005,2.337158 1.17898,0.581415 5.68464,1.253785 5.68464,1.253785 l -14.28361,0.499082 z"
       id="path1"
       sodipodi:nodetypes="cssssccc" />
  </g>
</svg>
