<?xml version="1.0" encoding="UTF-8" standalone="no"?>
<!-- Created with Inkscape (http://www.inkscape.org/) -->

<svg
   width="400"
   height="500"
   viewBox="0 0 105.83334 132.29166"
   version="1.1"
   id="svg1"
   inkscape:version="1.4.2 (ebf0e940d0, 2025-05-08)"
   sodipodi:docname="shear_zone2.svg"
   xmlns:inkscape="http://www.inkscape.org/namespaces/inkscape"
   xmlns:sodipodi="http://sodipodi.sourceforge.net/DTD/sodipodi-0.dtd"
   xmlns="http://www.w3.org/2000/svg"
   xmlns:svg="http://www.w3.org/2000/svg">
  <sodipodi:namedview
     id="namedview1"
     pagecolor="#ffffff"
     bordercolor="#666666"
     borderopacity="1.0"
     inkscape:showpageshadow="2"
     inkscape:pageopacity="0.0"
     inkscape:pagecheckerboard="0"
     inkscape:deskcolor="#d1d1d1"
     inkscape:document-units="px"
     inkscape:zoom="0.73892656"
     inkscape:cx="51.42595"
     inkscape:cy="311.93898"
     inkscape:window-width="1920"
     inkscape:window-height="1005"
     inkscape:window-x="0"
     inkscape:window-y="0"
     inkscape:window-maximized="1"
     inkscape:current-layer="layer1"
     showgrid="false" />
  <defs
     id="defs1" />
  <g
     inkscape:label="Layer 1"
     inkscape:groupmode="layer"
     id="layer1">
    <rect
       style="fill:#ef1644;fill-opacity:1;stroke:none;stroke-width:1.21261;stroke-dasharray:1.21261, 1.21261"
       id="rect1-3-7"
       width="105.83334"
       height="130.96873"
       x="0"
       y="1.3229166" />
    <rect
       style="fill:#501644;stroke:none;stroke-width:0.0872521;stroke-dasharray:0.0872521, 0.0872521"
       id="rect1"
       width="0.52916664"
       height="135.61482"
       x="56.316765"
       y="1.3698469"
       transform="matrix(1,0,-0.2595098,0.96574047,0,0)" />
    <rect
       style="fill:#50cd44;fill-opacity:1;stroke:none;stroke-width:0.195101;stroke-dasharray:0.195101, 0.195101"
       id="rect1-8"
       width="2.6458333"
       height="135.61484"
       x="56.845932"
       y="1.3698469"
       transform="matrix(1,0,-0.2595098,0.96574047,0,0)" />
    <rect
       style="fill:#501644;stroke:none;stroke-width:0.087252;stroke-dasharray:0.087252, 0.087252"
       id="rect1-4"
       width="0.52916533"
       height="135.61482"
       x="59.491764"
       y="1.3698469"
       transform="matrix(1,0,-0.2595098,0.96574047,0,0)" />
    <rect
       style="fill:#50cd44;fill-opacity:1;stroke:none;stroke-width:0.195101;stroke-dasharray:0.195101, 0.195101"
       id="rect1-8-8"
       width="2.6458268"
       height="135.61482"
       x="60.020931"
       y="1.3698469"
       transform="matrix(1,0,-0.2595098,0.96574047,0,0)" />
    <rect
       style="fill:#501644;stroke:none;stroke-width:0.0872521;stroke-dasharray:0.0872521, 0.0872521"
       id="rect1-7"
       width="0.52916664"
       height="135.61482"
       x="62.666767"
       y="1.3698469"
       transform="matrix(1,0,-0.2595098,0.96574047,0,0)" />
    <rect
       style="fill:#50cd44;fill-opacity:1;stroke:none;stroke-width:0.195101;stroke-dasharray:0.195101, 0.195101"
       id="rect1-8-6"
       width="2.6458333"
       height="135.61482"
       x="63.195934"
       y="1.3698469"
       transform="matrix(1,0,-0.2595098,0.96574047,0,0)" />
    <rect
       style="fill:#501644;stroke:none;stroke-width:0.0872521;stroke-dasharray:0.0872521, 0.0872521"
       id="rect1-0"
       width="0.52916664"
       height="135.61482"
       x="65.841766"
       y="1.3698469"
       transform="matrix(1,0,-0.2595098,0.96574047,0,0)" />
    <rect
       style="fill:#50cd44;fill-opacity:1;stroke:none;stroke-width:0.195101;stroke-dasharray:0.195101, 0.195101"
       id="rect1-8-9"
       width="2.6458333"
       height="135.61482"
       x="66.370934"
       y="1.3698469"
       transform="matrix(1,0,-0.2595098,0.96574047,0,0)" />
    <rect
       style="fill:#501644;stroke:none;stroke-width:0.0872521;stroke-dasharray:0.0872521, 0.0872521"
       id="rect1-5"
       width="0.52916664"
       height="135.61482"
       x="69.016762"
       y="1.3698469"
       transform="matrix(1,0,-0.2595098,0.96574047,0,0)" />
    <rect
       style="fill:#50cd44;fill-opacity:1;stroke:none;stroke-width:0.195101;stroke-dasharray:0.195101, 0.195101"
       id="rect1-8-94"
       width="2.6458333"
       height="135.61482"
       x="69.545929"
       y="1.3698469"
       transform="matrix(1,0,-0.2595098,0.96574047,0,0)" />
    <rect
       style="fill:#501644;stroke:none;stroke-width:0.0872521;stroke-dasharray:0.0872521, 0.0872521"
       id="rect1-47"
       width="0.52916664"
       height="135.61482"
       x="72.191765"
       y="1.3698469"
       transform="matrix(1,0,-0.2595098,0.96574047,0,0)" />
    <rect
       style="fill:#50cd44;fill-opacity:1;stroke:none;stroke-width:0.195101;stroke-dasharray:0.195101, 0.195101"
       id="rect1-8-7"
       width="2.6458333"
       height="135.61482"
       x="72.720932"
       y="1.3698469"
       transform="matrix(1,0,-0.2595098,0.96574047,0,0)" />
    <rect
       style="fill:#501644;stroke:none;stroke-width:0.0872521;stroke-dasharray:0.0872521, 0.0872521"
       id="rect1-47-2"
       width="0.52916664"
       height="135.61482"
       x="75.36676"
       y="1.3698469"
       transform="matrix(1,0,-0.2595098,0.96574047,0,0)" />
    <rect
       style="fill:#50cd44;fill-opacity:1;stroke:none;stroke-width:0.195101;stroke-dasharray:0.195101, 0.195101"
       id="rect1-8-7-8"
       width="2.6458333"
       height="135.61482"
       x="75.895927"
       y="1.3698469"
       transform="matrix(1,0,-0.2595098,0.96574047,0,0)" />
    <rect
       style="fill:#501644;stroke:none;stroke-width:0.0872521;stroke-dasharray:0.0872521, 0.0872521"
       id="rect1-47-0"
       width="0.52916664"
       height="135.61482"
       x="78.541763"
       y="1.3698469"
       transform="matrix(1,0,-0.2595098,0.96574047,0,0)" />
    <rect
       style="fill:#50cd44;fill-opacity:1;stroke:none;stroke-width:0.195101;stroke-dasharray:0.195101, 0.195101"
       id="rect1-8-7-2"
       width="2.6458333"
       height="135.61482"
       x="79.07093"
       y="1.3698469"
       transform="matrix(1,0,-0.2595098,0.96574047,0,0)" />
    <rect
       style="fill:#501644;stroke:none;stroke-width:0.0872521;stroke-dasharray:0.0872521, 0.0872521"
       id="rect1-47-1"
       width="0.52916664"
       height="135.61482"
       x="81.716766"
       y="1.3698469"
       transform="matrix(1,0,-0.2595098,0.96574047,0,0)" />
    <rect
       style="fill:#501644;stroke:none;stroke-width:0.0872521;stroke-dasharray:0.0872521, 0.0872521"
       id="rect1-47-1-3"
       width="0.5291667"
       height="135.61482"
       x="84.891762"
       y="1.3698469"
       transform="matrix(1,0,-0.2595098,0.96574047,0,0)" />
    <rect
       style="fill:#50cd44;fill-opacity:1;stroke:none;stroke-width:0.195101;stroke-dasharray:0.195101, 0.195101"
       id="rect1-8-7-0"
       width="2.6458333"
       height="135.61482"
       x="82.245934"
       y="1.3698469"
       transform="matrix(1,0,-0.2595098,0.96574047,0,0)" />
    <rect
       style="fill:#cccccc;stroke:none;stroke-width:0.137389;stroke-dasharray:0.137389, 0.137389"
       id="rect2"
       width="105.83334"
       height="1.3229166"
       x="-1.110223e-16"
       y="8.8817842e-16" />
    <rect
       style="fill:#333333;stroke:none;stroke-width:0.137389;stroke-dasharray:0.137389, 0.137389"
       id="rect2-1"
       width="105.83334"
       height="1.3229166"
       x="-4.4408921e-16"
       y="130.96875" />
  </g>
</svg>
