<?xml version="1.0" encoding="UTF-8" standalone="no"?>
<!-- Created with Inkscape (http://www.inkscape.org/) -->

<svg
   width="500"
   height="500"
   viewBox="0 0 132.29167 132.29166"
   version="1.1"
   id="svg1"
   inkscape:version="1.4.2 (ebf0e940d0, 2025-05-08)"
   sodipodi:docname="shear_zone4.svg"
   xmlns:inkscape="http://www.inkscape.org/namespaces/inkscape"
   xmlns:sodipodi="http://sodipodi.sourceforge.net/DTD/sodipodi-0.dtd"
   xmlns="http://www.w3.org/2000/svg"
   xmlns:svg="http://www.w3.org/2000/svg">
  <sodipodi:namedview
     id="namedview1"
     pagecolor="#ffffff"
     bordercolor="#666666"
     borderopacity="1.0"
     inkscape:showpageshadow="2"
     inkscape:pageopacity="0.0"
     inkscape:pagecheckerboard="0"
     inkscape:deskcolor="#d1d1d1"
     inkscape:document-units="px"
     inkscape:zoom="0.52249998"
     inkscape:cx="174.16268"
     inkscape:cy="505.26317"
     inkscape:window-width="1920"
     inkscape:window-height="1044"
     inkscape:window-x="1920"
     inkscape:window-y="0"
     inkscape:window-maximized="1"
     inkscape:current-layer="layer2" />
  <defs
     id="defs1" />
  <g
     inkscape:label="Layer 1"
     inkscape:groupmode="layer"
     id="layer1"
     style="display:inline">
    <rect
       style="fill:#ef1644;fill-opacity:1;stroke:none;stroke-width:1.35574;stroke-dasharray:1.35574, 1.35574"
       id="rect1-3-7"
       width="132.29167"
       height="130.96875"
       x="0"
       y="1.3229166" />
    <path
       style="fill:none;stroke:#000000;stroke-width:0.264969px;stroke-linecap:butt;stroke-linejoin:miter;stroke-opacity:1"
       d="M -158.65632,132.19798 -26.552017,0.09368069"
       id="path4" />
    <path
       style="fill:none;stroke:#000000;stroke-width:0.242466px;stroke-linecap:butt;stroke-linejoin:miter;stroke-opacity:1"
       d="M -158.6329,132.26007 -123.20233,0.03137736"
       id="path5" />
    <path
       style="fill:none;stroke:#000000;stroke-width:0.225208px;stroke-linecap:butt;stroke-linejoin:miter;stroke-opacity:1"
       d="M -158.65248,132.23555 -82.338748,0.05630209"
       id="path6" />
    <rect
       style="fill:#200000;fill-opacity:1;stroke:none;stroke-width:0.0969618;stroke-dasharray:0.0969618, 0.0969618"
       id="rect6"
       width="132.29167"
       height="1.3229166"
       x="0"
       y="130.96875" />
    <rect
       style="fill:#999999;fill-opacity:1;stroke:none;stroke-width:0.0969618;stroke-dasharray:0.0969618, 0.0969618"
       id="rect6-4"
       width="132.29167"
       height="1.3229166"
       x="-3.5527137e-15"
       y="0" />
  </g>
  <g
     inkscape:groupmode="layer"
     id="layer2"
     inkscape:label="band"
     style="display:inline">
    <rect
       style="fill:#50cd44;fill-opacity:1;stroke:none;stroke-width:0.227896;stroke-dasharray:0.227896, 0.227896"
       id="rect1-8-8"
       width="2.6458268"
       height="185.03775"
       x="56.363552"
       y="1.8690685"
       transform="matrix(1,0,-0.70641825,0.70779464,0,0)" />
    <rect
       style="fill:#501644;stroke:none;stroke-width:0.101918;stroke-dasharray:0.101918, 0.101918"
       id="rect1-7"
       width="0.52916664"
       height="185.03775"
       x="59.00938"
       y="1.8690685"
       transform="matrix(1,0,-0.70641825,0.70779464,0,0)" />
    <rect
       style="fill:#50cd44;fill-opacity:1;stroke:none;stroke-width:0.227896;stroke-dasharray:0.227896, 0.227896"
       id="rect1-8-6"
       width="2.6458333"
       height="185.03775"
       x="59.538555"
       y="1.8690685"
       transform="matrix(1,0,-0.70641825,0.70779464,0,0)" />
    <rect
       style="fill:#501644;stroke:none;stroke-width:0.101918;stroke-dasharray:0.101918, 0.101918"
       id="rect1-0"
       width="0.52916664"
       height="185.03775"
       x="62.18438"
       y="1.8690685"
       transform="matrix(1,0,-0.70641825,0.70779464,0,0)" />
    <rect
       style="fill:#50cd44;fill-opacity:1;stroke:none;stroke-width:0.227896;stroke-dasharray:0.227896, 0.227896"
       id="rect1-8-9"
       width="2.6458333"
       height="185.03775"
       x="62.713554"
       y="1.8690685"
       transform="matrix(1,0,-0.70641825,0.70779464,0,0)" />
    <rect
       style="fill:#501644;stroke:none;stroke-width:0.101918;stroke-dasharray:0.101918, 0.101918"
       id="rect1-5"
       width="0.52916664"
       height="185.03775"
       x="65.359383"
       y="1.8690685"
       transform="matrix(1,0,-0.70641825,0.70779464,0,0)" />
    <rect
       style="fill:#50cd44;fill-opacity:1;stroke:none;stroke-width:0.227896;stroke-dasharray:0.227896, 0.227896"
       id="rect1-8-94"
       width="2.6458333"
       height="185.03775"
       x="65.888542"
       y="1.8690685"
       transform="matrix(1,0,-0.70641825,0.70779464,0,0)" />
    <rect
       style="fill:#501644;stroke:none;stroke-width:0.101918;stroke-dasharray:0.101918, 0.101918"
       id="rect1-47"
       width="0.52916664"
       height="185.03775"
       x="68.534386"
       y="1.8690685"
       transform="matrix(1,0,-0.70641825,0.70779464,0,0)" />
    <rect
       style="fill:#50cd44;fill-opacity:1;stroke:none;stroke-width:0.227896;stroke-dasharray:0.227896, 0.227896"
       id="rect1-8-7"
       width="2.6458333"
       height="185.03775"
       x="69.063545"
       y="1.8690685"
       transform="matrix(1,0,-0.70641825,0.70779464,0,0)" />
    <rect
       style="fill:#501644;stroke:none;stroke-width:0.101918;stroke-dasharray:0.101918, 0.101918"
       id="rect1-47-2"
       width="0.52916664"
       height="185.03775"
       x="71.709373"
       y="1.8690685"
       transform="matrix(1,0,-0.70641825,0.70779464,0,0)" />
    <rect
       style="fill:#50cd44;fill-opacity:1;stroke:none;stroke-width:0.227896;stroke-dasharray:0.227896, 0.227896"
       id="rect1-8-7-8"
       width="2.6458333"
       height="185.03775"
       x="72.238548"
       y="1.8690685"
       transform="matrix(1,0,-0.70641825,0.70779464,0,0)" />
    <rect
       style="fill:#50cd44;fill-opacity:1;stroke:none;stroke-width:0.227896;stroke-dasharray:0.227896, 0.227896"
       id="rect1-8-7-2"
       width="2.6458333"
       height="185.03775"
       x="75.413551"
       y="1.8690685"
       transform="matrix(1,0,-0.70641825,0.70779464,0,0)" />
    <rect
       style="fill:#50cd44;fill-opacity:1;stroke:none;stroke-width:0.227896;stroke-dasharray:0.227896, 0.227896"
       id="rect1-8-7-0"
       width="2.6458333"
       height="185.03775"
       x="78.588554"
       y="1.8690685"
       transform="matrix(1,0,-0.70641825,0.70779464,0,0)" />
    <rect
       style="fill:#50cd44;fill-opacity:1;stroke:none;stroke-width:0.227896;stroke-dasharray:0.227896, 0.227896"
       id="rect1-8"
       width="2.6458333"
       height="185.0378"
       x="53.188549"
       y="1.8690685"
       transform="matrix(1,0,-0.70641825,0.70779464,0,0)" />
    <rect
       style="fill:#501644;stroke:none;stroke-width:0.101918;stroke-dasharray:0.101918, 0.101918"
       id="rect1-4"
       width="0.52916533"
       height="185.03775"
       x="55.834393"
       y="1.8690685"
       transform="matrix(1,0,-0.70641825,0.70779464,0,0)" />
    <rect
       style="fill:#501644;stroke:none;stroke-width:0.101918;stroke-dasharray:0.101918, 0.101918"
       id="rect1-47-0"
       width="0.52916664"
       height="185.03775"
       x="74.884377"
       y="1.8690685"
       transform="matrix(1,0,-0.70641825,0.70779464,0,0)" />
    <rect
       style="fill:#501644;stroke:none;stroke-width:0.101918;stroke-dasharray:0.101918, 0.101918"
       id="rect1-47-1"
       width="0.52916664"
       height="185.03775"
       x="78.05938"
       y="1.8690685"
       transform="matrix(1,0,-0.70641825,0.70779464,0,0)" />
    <rect
       style="fill:#501644;stroke:none;stroke-width:0.101918;stroke-dasharray:0.101918, 0.101918"
       id="rect1"
       width="0.52916664"
       height="185.03775"
       x="52.659389"
       y="1.8690685"
       transform="matrix(1,0,-0.70641825,0.70779464,0,0)" />
  </g>
</svg>
