<?xml version="1.0" encoding="UTF-8" standalone="no"?>
<!-- Created with Inkscape (http://www.inkscape.org/) -->

<svg
   width="800"
   height="500"
   viewBox="0 0 211.66667 132.29166"
   version="1.1"
   id="svg1"
   inkscape:version="1.4.2 (ebf0e940d0, 2025-05-08)"
   sodipodi:docname="shear_zone3.svg"
   xmlns:inkscape="http://www.inkscape.org/namespaces/inkscape"
   xmlns:sodipodi="http://sodipodi.sourceforge.net/DTD/sodipodi-0.dtd"
   xmlns="http://www.w3.org/2000/svg"
   xmlns:svg="http://www.w3.org/2000/svg">
  <sodipodi:namedview
     id="namedview1"
     pagecolor="#ffffff"
     bordercolor="#666666"
     borderopacity="1.0"
     inkscape:showpageshadow="2"
     inkscape:pageopacity="0.0"
     inkscape:pagecheckerboard="0"
     inkscape:deskcolor="#d1d1d1"
     inkscape:document-units="px"
     inkscape:zoom="0.73892656"
     inkscape:cx="193.52397"
     inkscape:cy="358.62833"
     inkscape:window-width="1920"
     inkscape:window-height="1044"
     inkscape:window-x="1920"
     inkscape:window-y="0"
     inkscape:window-maximized="1"
     inkscape:current-layer="layer1" />
  <defs
     id="defs1" />
  <g
     inkscape:label="Layer 1"
     inkscape:groupmode="layer"
     id="layer1">
    <rect
       style="fill:#ef1644;fill-opacity:1;stroke:none;stroke-width:1.21261;stroke-dasharray:1.21261, 1.21261"
       id="rect1-3-7"
       width="105.83334"
       height="130.96873"
       x="0"
       y="1.3229166" />
    <rect
       style="fill:#501644;stroke:none;stroke-width:0.0921623;stroke-dasharray:0.0921623, 0.0921623"
       id="rect1"
       width="0.52916664"
       height="151.30824"
       x="76.537239"
       y="1.5283663"
       transform="matrix(1,0,-0.50077823,0.86557563,0,0)" />
    <rect
       style="fill:#50cd44;fill-opacity:1;stroke:none;stroke-width:0.206081;stroke-dasharray:0.206081, 0.206081"
       id="rect1-8"
       width="2.6458333"
       height="151.30827"
       x="77.066406"
       y="1.5283663"
       transform="matrix(1,0,-0.50077823,0.86557563,0,0)" />
    <rect
       style="fill:#501644;stroke:none;stroke-width:0.0921623;stroke-dasharray:0.0921623, 0.0921623"
       id="rect1-4"
       width="0.52916533"
       height="151.30824"
       x="79.712242"
       y="1.5283663"
       transform="matrix(1,0,-0.50077823,0.86557563,0,0)" />
    <rect
       style="fill:#50cd44;fill-opacity:1;stroke:none;stroke-width:0.206081;stroke-dasharray:0.206081, 0.206081"
       id="rect1-8-8"
       width="2.6458268"
       height="151.30824"
       x="80.241409"
       y="1.5283663"
       transform="matrix(1,0,-0.50077823,0.86557563,0,0)" />
    <rect
       style="fill:#501644;stroke:none;stroke-width:0.0921623;stroke-dasharray:0.0921623, 0.0921623"
       id="rect1-7"
       width="0.52916664"
       height="151.30824"
       x="82.887238"
       y="1.5283663"
       transform="matrix(1,0,-0.50077823,0.86557563,0,0)" />
    <rect
       style="fill:#50cd44;fill-opacity:1;stroke:none;stroke-width:0.206081;stroke-dasharray:0.206081, 0.206081"
       id="rect1-8-6"
       width="2.6458333"
       height="151.30824"
       x="83.416405"
       y="1.5283663"
       transform="matrix(1,0,-0.50077823,0.86557563,0,0)" />
    <rect
       style="fill:#501644;stroke:none;stroke-width:0.0921623;stroke-dasharray:0.0921623, 0.0921623"
       id="rect1-0"
       width="0.52916664"
       height="151.30824"
       x="86.062241"
       y="1.5283663"
       transform="matrix(1,0,-0.50077823,0.86557563,0,0)" />
    <rect
       style="fill:#50cd44;fill-opacity:1;stroke:none;stroke-width:0.206081;stroke-dasharray:0.206081, 0.206081"
       id="rect1-8-9"
       width="2.6458333"
       height="151.30824"
       x="86.591408"
       y="1.5283663"
       transform="matrix(1,0,-0.50077823,0.86557563,0,0)" />
    <rect
       style="fill:#501644;stroke:none;stroke-width:0.0921623;stroke-dasharray:0.0921623, 0.0921623"
       id="rect1-5"
       width="0.52916664"
       height="151.30824"
       x="89.237236"
       y="1.5283663"
       transform="matrix(1,0,-0.50077823,0.86557563,0,0)" />
    <rect
       style="fill:#50cd44;fill-opacity:1;stroke:none;stroke-width:0.206081;stroke-dasharray:0.206081, 0.206081"
       id="rect1-8-94"
       width="2.6458333"
       height="151.30824"
       x="89.766403"
       y="1.5283663"
       transform="matrix(1,0,-0.50077823,0.86557563,0,0)" />
    <rect
       style="fill:#501644;stroke:none;stroke-width:0.0921623;stroke-dasharray:0.0921623, 0.0921623"
       id="rect1-47"
       width="0.52916664"
       height="151.30824"
       x="92.412239"
       y="1.5283663"
       transform="matrix(1,0,-0.50077823,0.86557563,0,0)" />
    <rect
       style="fill:#50cd44;fill-opacity:1;stroke:none;stroke-width:0.206081;stroke-dasharray:0.206081, 0.206081"
       id="rect1-8-7"
       width="2.6458333"
       height="151.30824"
       x="92.941406"
       y="1.5283663"
       transform="matrix(1,0,-0.50077823,0.86557563,0,0)" />
    <rect
       style="fill:#501644;stroke:none;stroke-width:0.0921623;stroke-dasharray:0.0921623, 0.0921623"
       id="rect1-47-2"
       width="0.52916664"
       height="151.30824"
       x="95.587234"
       y="1.5283663"
       transform="matrix(1,0,-0.50077823,0.86557563,0,0)" />
    <rect
       style="fill:#50cd44;fill-opacity:1;stroke:none;stroke-width:0.206081;stroke-dasharray:0.206081, 0.206081"
       id="rect1-8-7-8"
       width="2.6458333"
       height="151.30824"
       x="96.116402"
       y="1.5283663"
       transform="matrix(1,0,-0.50077823,0.86557563,0,0)" />
    <rect
       style="fill:#501644;stroke:none;stroke-width:0.0921623;stroke-dasharray:0.0921623, 0.0921623"
       id="rect1-47-0"
       width="0.52916664"
       height="151.30824"
       x="98.762238"
       y="1.5283663"
       transform="matrix(1,0,-0.50077823,0.86557563,0,0)" />
    <rect
       style="fill:#50cd44;fill-opacity:1;stroke:none;stroke-width:0.206081;stroke-dasharray:0.206081, 0.206081"
       id="rect1-8-7-2"
       width="2.6458333"
       height="151.30824"
       x="99.291405"
       y="1.5283663"
       transform="matrix(1,0,-0.50077823,0.86557563,0,0)" />
    <rect
       style="fill:#501644;stroke:none;stroke-width:0.0921623;stroke-dasharray:0.0921623, 0.0921623"
       id="rect1-47-1"
       width="0.52916664"
       height="151.30824"
       x="101.93724"
       y="1.5283663"
       transform="matrix(1,0,-0.50077823,0.86557563,0,0)" />
    <rect
       style="fill:#50cd44;fill-opacity:1;stroke:none;stroke-width:0.206081;stroke-dasharray:0.206081, 0.206081"
       id="rect1-8-7-0"
       width="2.6458333"
       height="151.30824"
       x="102.46641"
       y="1.5283663"
       transform="matrix(1,0,-0.50077823,0.86557563,0,0)" />
    <path
       style="fill:none;stroke:#000000;stroke-width:0.264969px;stroke-linecap:butt;stroke-linejoin:miter;stroke-opacity:1"
       d="M 0.09368068,132.19798 132.19798,0.09368069"
       id="path4" />
    <path
       style="fill:none;stroke:#000000;stroke-width:0.242466px;stroke-linecap:butt;stroke-linejoin:miter;stroke-opacity:1"
       d="M 0.11710189,132.26007 35.547672,0.03137736"
       id="path5" />
    <path
       style="fill:none;stroke:#000000;stroke-width:0.225208px;stroke-linecap:butt;stroke-linejoin:miter;stroke-opacity:1"
       d="M 0.09751806,132.23555 76.411249,0.05630208"
       id="path6" />
  </g>
</svg>
